<svg width="16" height="20" viewBox="0 0 16 20" fill="none" xmlns="http://www.w3.org/2000/svg">
<path d="M15.6052 6.65302C14.6774 2.36389 11.0736 0.446289 7.91579 0.446289C7.91579 0.446289 7.91579 0.446289 7.90687 0.446289C4.75794 0.446289 1.16302 2.36389 0.226376 6.64375C-0.826231 11.4239 1.99261 15.4721 4.54385 18.0289C5.48941 18.9738 6.70261 19.4463 7.91579 19.4463C9.12896 19.4463 10.3421 18.9738 11.2788 18.0289C13.83 15.4721 16.6489 11.4331 15.6052 6.65302ZM10.8417 7.42191L7.27352 11.1274C7.13971 11.2664 6.97022 11.3312 6.80074 11.3312C6.63125 11.3312 6.46176 11.2664 6.32795 11.1274L4.98987 9.73785C4.73118 9.4692 4.73118 9.02454 4.98987 8.75589C5.24856 8.48724 5.67674 8.48724 5.93543 8.75589L6.80074 9.65448L9.89611 6.43995C10.1548 6.1713 10.583 6.1713 10.8417 6.43995C11.1004 6.7086 11.1004 7.15326 10.8417 7.42191Z" fill="#EB505E"/>
</svg>
